<svg xmlns="http://www.w3.org/2000/svg" xmlns:svg="http://www.w3.org/2000/svg" xmlns:xlink="http://www.w3.org/1999/xlink" id="svg2" width="103" height="38" version="1.1" style="enable-background:new"><defs id="defs4"><linearGradient id="linearGradient3162"><stop style="stop-color:#fff;stop-opacity:1" id="stop3164" offset="0"/><stop id="stop3166" offset=".595" style="stop-color:#f0f0f0;stop-opacity:1"/><stop style="stop-color:#9d9da3;stop-opacity:1" id="stop3168" offset="1"/></linearGradient><linearGradient id="linearGradient3840"><stop id="stop3842" offset="0" style="stop-color:#729fcf;stop-opacity:1"/><stop id="stop3844" offset="1" style="stop-color:#204a87;stop-opacity:1"/></linearGradient><linearGradient id="linearGradient3851"><stop style="stop-color:#fff;stop-opacity:1" id="stop3853" offset="0"/><stop style="stop-color:#c6c6c6;stop-opacity:1" id="stop3855" offset="1"/></linearGradient><linearGradient id="linearGradient3843"><stop style="stop-color:#cd8888;stop-opacity:.37238494" id="stop3845" offset="0"/><stop style="stop-color:#371717;stop-opacity:0" id="stop3847" offset="1"/></linearGradient><filter id="filter4966" color-interpolation-filters="sRGB"><feBlend id="feBlend4968" in2="BackgroundImage" mode="multiply"/></filter><linearGradient id="linearGradient4976" x1="190" x2="32" y1="210.5" y2="16.5" gradientUnits="userSpaceOnUse" xlink:href="#linearGradient3843"/><linearGradient id="linearGradient3147" x1="171.154" x2="195.829" y1="73.288" y2="43.908" gradientTransform="matrix(0.10256408,0,0,0.10221551,1.9297895,1023.727)" gradientUnits="userSpaceOnUse" xlink:href="#linearGradient3851"/><linearGradient id="linearGradient3150" x1="160.879" x2="203.531" y1="1009.5" y2="1027.54" gradientTransform="matrix(0.10256408,0,0,0.10221551,2.0475721,939.32757)" gradientUnits="userSpaceOnUse" xlink:href="#linearGradient3162"/><linearGradient id="linearGradient3214" x1="62.905" x2="178.489" y1="34.914" y2="235.112" gradientTransform="matrix(0.10256408,0,0,0.10221551,1.9297895,1023.727)" gradientUnits="userSpaceOnUse" xlink:href="#linearGradient3840"/><linearGradient id="linearGradient6184" x1="10.375" x2="20.188" y1="1028.612" y2="1050.675" gradientUnits="userSpaceOnUse" xlink:href="#linearGradient3851"/><linearGradient id="linearGradient3214-1" x1="62.905" x2="178.489" y1="34.914" y2="235.112" gradientTransform="matrix(0.10256408,0,0,0.10221551,1.9297895,1023.727)" gradientUnits="userSpaceOnUse" xlink:href="#linearGradient3840-9"/><linearGradient id="linearGradient3840-9"><stop id="stop3842-7" offset="0" style="stop-color:#729fcf;stop-opacity:1"/><stop id="stop3844-1" offset="1" style="stop-color:#204a87;stop-opacity:1"/></linearGradient><filter id="filter6764"><feGaussianBlur id="feGaussianBlur6766" stdDeviation=".497"/></filter><filter id="filter6768"><feGaussianBlur id="feGaussianBlur6770" stdDeviation=".497"/></filter></defs><metadata id="metadata7"/><g id="layer1" transform="translate(0,-1014.3622)"><path style="fill:#2e3436;fill-opacity:.627451;stroke:none;enable-background:new;filter:url(#filter6764)" id="path4914-3" d="M 71.78125 11.125 C 69.921258 11.145922 68.430479 11.559972 67.34375 12.375 C 66.152521 13.294565 65.562498 14.836903 65.5625 17.03125 L 65.5625 19 C 65.562498 23.054364 67.550138 25.093759 71.5 25.09375 L 75 25.09375 C 75.417963 25.093759 75.759555 25.145515 76.03125 25.25 C 76.720895 25.500793 77.062487 26.163274 77.0625 27.25 L 77.0625 28.46875 C 77.062487 29.304704 76.751949 29.884571 76.125 30.15625 C 75.832406 30.281646 75.542571 30.364456 75.25 30.40625 C 74.978306 30.448051 73.994935 30.468754 72.28125 30.46875 C 70.567548 30.468754 68.548855 30.35489 66.25 30.125 L 66.25 33.5625 C 68.381665 34.189462 71.342324 34.5 75.125 34.5 C 76.525202 34.5 77.694895 34.272272 78.65625 33.8125 C 80.51622 32.955654 81.468733 31.112932 81.46875 28.3125 L 81.46875 26.78125 C 81.468733 25.590031 81.261707 24.523851 80.84375 23.5625 C 80.028684 21.660729 78.41369 20.718764 76.03125 20.71875 L 72.40625 20.71875 C 71.486699 20.718764 70.855271 20.573846 70.5 20.28125 C 70.144716 19.988682 69.968744 19.377761 69.96875 18.5 L 69.96875 17.375 C 69.968744 16.392778 70.186121 15.782053 70.625 15.53125 C 71.063866 15.280484 71.74705 15.156269 72.6875 15.15625 C 72.791985 15.156269 73.537276 15.156269 74.9375 15.15625 C 76.358601 15.156269 78.273781 15.259782 80.65625 15.46875 L 80.65625 12.03125 C 79.715792 11.759589 78.44239 11.542213 76.875 11.375 C 75.328483 11.207833 74.15879 11.125023 73.34375 11.125 C 72.54959 11.125023 72.032027 11.125023 71.78125 11.125 z M 5.65625 11.25 C 5.57685 11.25 5.5 11.31795 5.5 11.40625 L 5.5 34.09375 C 5.5 34.17975 5.57686 34.25 5.65625 34.25 L 22.4375 34.25 L 25.4375 25.125 L 25.4375 17.375 L 19.34375 11.25 L 5.65625 11.25 z M 32.25 11.3125 L 24.5 34.25 L 29.1875 34.25 L 30.875 29.15625 L 38.375 29.15625 L 40.03125 34.25 L 44.6875 34.25 L 37.21875 11.3125 L 32.25 11.3125 z M 46.71875 11.3125 L 46.71875 34.25 L 51.125 34.25 L 51.125 25.15625 C 51.208589 25.198056 52.057393 25.31192 53.6875 25.5 C 55.31759 25.688097 56.487283 25.781258 57.21875 25.78125 C 58.221876 25.781258 59.153686 25.594936 59.96875 25.21875 C 60.595696 24.947076 61.102908 24.564079 61.5 24.0625 C 61.917958 23.540043 62.259549 22.805103 62.53125 21.84375 C 62.823814 20.882422 62.968732 19.712533 62.96875 18.375 C 62.968732 16.076159 62.502925 14.3682 61.5625 13.21875 C 60.538447 11.94395 58.871697 11.312523 56.59375 11.3125 L 46.71875 11.3125 z M 51.125 15.1875 L 56.25 15.1875 C 57.754695 15.187519 58.510338 16.253699 58.53125 18.40625 C 58.531237 20.119959 58.179294 21.207039 57.46875 21.625 C 57.155257 21.813101 56.751558 21.906262 56.25 21.90625 L 51.125 21.90625 L 51.125 15.1875 z M 10.5 15.5625 L 18.375 15.5625 L 21.5 18.75 L 21.5 26.65625 L 18.375 30.25 L 10.5 30.25 L 10.5 15.5625 z M 34.78125 17.0625 L 37.34375 25.28125 L 32.03125 25.28125 L 34.78125 17.0625 z" transform="translate(0,1014.3622)"/><path style="fill:url(#linearGradient6184);fill-opacity:1;stroke:none;enable-background:new" id="path4914-2" d="m 5.15625,1025.3622 c -0.0794,0 -0.15625,0.068 -0.15625,0.1563 l 0,22.6875 c 0,0.086 0.07686,0.1562 0.15625,0.1562 l 16.78125,0 3,-9.125 0,-7.75 -6.09375,-6.125 z"/><path style="fill:url(#linearGradient3214);fill-opacity:1;stroke:none" id="path4914" d="m 5.15625,1025.3622 c -0.0794,0 -0.15625,0.068 -0.15625,0.1563 l 0,22.6875 c 0,0.086 0.076857,0.1562 0.15625,0.1562 l 16.78125,0 3,-9.125 0,-7.75 -6.09375,-6.125 z m 4.84375,4.3125 7.875,0 3.125,3.1875 0,7.9 -3.125,3.6 -7.875,0 z"/><rect id="rect3913" width="2" height="23" x="6" y="1025.362" rx=".021" ry="1.54" style="opacity:.55;fill:#fff;fill-opacity:1;stroke:none"/><path id="path3761" d="m 21.9375,1048.3622 3,-9.125 -6,6.875 z" style="fill:url(#linearGradient3150);fill-opacity:1;stroke:none"/><path style="fill:url(#linearGradient3147);fill-opacity:1;stroke:none" id="path3759" d="m 18.852864,1025.3623 6.153841,6.133 -6.153841,0 z"/><path style="fill:#fff;fill-opacity:1;stroke:none" id="path4929" d="m 18.852864,1025.3623 0,6.133 6.153841,0 -0.102557,-0.1021 -5.948717,0 0,-5.9285 -0.102557,-0.1021 z"/><text style="font-size:31.34808539999999866px;font-style:normal;font-variant:normal;font-weight:400;font-stretch:normal;line-height:125%;letter-spacing:0;word-spacing:0;fill:#4b76ac;fill-opacity:1;stroke:none;enable-background:new;font-family:Exo;-inkscape-font-specification:Exo" id="text3142-1" x="22.934" y="1048.362" xml:space="preserve"><tspan id="tspan3144-7" x="22.934" y="1048.362" style="font-weight:700;fill:#4b76ac;-inkscape-font-specification:Exo Bold;fill-opacity:1">APS</tspan></text><path style="font-size:medium;font-style:normal;font-variant:normal;font-weight:400;font-stretch:normal;text-indent:0;text-align:start;text-decoration:none;line-height:normal;letter-spacing:normal;word-spacing:normal;text-transform:none;direction:ltr;block-progression:tb;writing-mode:lr-tb;text-anchor:start;baseline-shift:baseline;color:#000;fill:#fff;fill-opacity:1;fill-rule:nonzero;stroke:none;stroke-width:.1;marker:none;visibility:visible;display:inline;overflow:visible;enable-background:new;font-family:Sans;-inkscape-font-specification:Sans" id="path3761-3" d="m 24.9375,1039.1122 -6.139285,7.0104 2.989285,2.2396 0.15,0 -2.99,-2.25 5.99,-6.875 z"/></g><g id="layer2" transform="translate(0,-218)" style="display:none;filter:url(#filter4966)"><path style="fill:url(#linearGradient4976);fill-opacity:1;stroke:none" id="path4939" d="M 31.40625,16 C 30.632135,16 30,16.677859 30,17.53125 l 0,221.9375 C 30,240.32214 30.632135,241 31.40625,241 L 165,241 225,181 225,76 165,16 31.40625,16 z"/></g></svg>